<?xml version="1.0" encoding="UTF-8"?>
<svg version="1.1" xmlns="http://www.w3.org/2000/svg" width="500" height="500">
<path d="M0 0 C0.67958771 0.00054382 1.35917542 0.00108765 2.05935669 0.00164795 C30.19129898 0.10476032 56.81602609 8.98034189 79.0625 26.375 C81.2730252 27.96855246 83.48506745 29.55992815 85.69921875 31.1484375 C86.37404297 31.75558594 86.37404297 31.75558594 87.0625 32.375 C87.0625 33.035 87.0625 33.695 87.0625 34.375 C87.7225 34.375 88.3825 34.375 89.0625 34.375 C89.0625 35.035 89.0625 35.695 89.0625 36.375 C90.0525 36.705 91.0425 37.035 92.0625 37.375 C92.0625 38.035 92.0625 38.695 92.0625 39.375 C92.7225 39.375 93.3825 39.375 94.0625 39.375 C94.0625 40.035 94.0625 40.695 94.0625 41.375 C94.7225 41.375 95.3825 41.375 96.0625 41.375 C102.140288 47.8237328 111.92674347 58.33024798 113.0625 67.375 C111.51883836 68.91866164 110.03605995 68.56303056 107.88500977 68.63134766 C106.99640762 68.66032135 106.10780548 68.68929504 105.192276 68.71914673 C101.08941238 68.81677055 96.98672627 68.89082448 92.88305664 68.94482422 C90.72674786 68.9813417 88.57066128 69.03576748 86.4152832 69.10888672 C66.19971755 69.78434715 66.19971755 69.78434715 59.87890625 64.05859375 C58.58400847 62.51622311 57.31004413 60.9559178 56.0625 59.375 C37.50830833 44.12399521 15.26371014 38.58587937 -8.421875 40.68359375 C-26.07093837 42.89953171 -41.64330194 49.20082414 -55.08203125 60.90625 C-56.9375 62.375 -56.9375 62.375 -58.9375 62.375 C-59.28748047 63.2103125 -59.28748047 63.2103125 -59.64453125 64.0625 C-61.26305769 66.95726632 -63.31406471 68.99682464 -65.625 71.375 C-80.66684952 87.47964783 -87.3728708 109.31498534 -87.04443359 131.11083984 C-86.20109424 148.96729909 -81.26941303 163.95394139 -71.4765625 178.86328125 C-69.9375 181.375 -69.9375 181.375 -69.9375 183.375 C-69.2775 183.375 -68.6175 183.375 -67.9375 183.375 C-66.52734375 184.84375 -66.52734375 184.84375 -64.875 186.875 C-53.42926657 200.31957253 -39.74536257 208.43691579 -23.015625 213.56640625 C-22.13986816 213.83876099 -21.26411133 214.11111572 -20.36181641 214.39172363 C-18.22155374 215.05672339 -16.08014106 215.71771224 -13.9375 216.375 C-13.94860306 215.42667801 -13.95970612 214.47835602 -13.97114563 213.501297 C-14.07301147 204.51389024 -14.14769839 195.52660236 -14.19656086 186.53874683 C-14.22252725 181.91922034 -14.25768463 177.30016413 -14.31469727 172.6809082 C-14.36948434 168.21342613 -14.39901767 163.74639309 -14.41188622 159.27860069 C-14.42104313 157.58391958 -14.43892187 155.88925983 -14.46615028 154.19477272 C-14.66541493 141.2663401 -13.61384154 129.185757 -4.125 119.375 C-0.08812768 115.26038051 3.85717207 111.87229296 9.0625 109.375 C9.71992188 109.05917969 10.37734375 108.74335938 11.0546875 108.41796875 C15.86283061 106.36936303 19.85704692 106.00970505 25.0625 106.375 C26.8285291 108.1410291 26.18864848 110.66902289 26.18948364 113.06248474 C26.19230347 114.29784973 26.19512329 115.53321472 26.19802856 116.80601501 C26.19608396 118.18765273 26.19403577 119.56929031 26.19189453 120.95092773 C26.19324854 122.3960881 26.19502847 123.84124811 26.19720459 125.28640747 C26.20177935 129.22231598 26.19998908 133.1581984 26.1968255 137.09410739 C26.19430164 141.20515945 26.19663956 145.31620921 26.19821167 149.42726135 C26.20003349 156.33342898 26.19762694 163.23958594 26.19287109 170.14575195 C26.1874306 178.13859362 26.18918953 186.13140978 26.1946975 194.12425083 C26.19923083 200.97605242 26.19987803 207.82784633 26.19725883 214.67964894 C26.195697 218.77653838 26.1954997 222.87341581 26.19879532 226.97030449 C26.20167715 230.82223712 26.19969256 234.67413677 26.19390106 238.52606583 C26.19257505 239.94266391 26.1929649 241.35926475 26.19516373 242.77586174 C26.19788146 244.70408405 26.19387494 246.63231239 26.18948364 248.56053162 C26.1889181 250.18186083 26.1889181 250.18186083 26.18834114 251.83594418 C26.0625 254.375 26.0625 254.375 25.0625 256.375 C9.9847667 259.68789322 -8.9177936 258.55606898 -23.9375 255.375 C-25.86916016 254.9728125 -25.86916016 254.9728125 -27.83984375 254.5625 C-44.98638898 250.74987661 -61.8599431 242.939975 -75.9375 232.375 C-75.9375 231.715 -75.9375 231.055 -75.9375 230.375 C-76.67572998 230.12427734 -77.41395996 229.87355469 -78.17456055 229.61523438 C-81.16119247 228.27458843 -82.84422154 226.84155518 -85.14453125 224.53125 C-85.89541016 223.77972656 -86.64628906 223.02820313 -87.41992188 222.25390625 C-88.18884766 221.46886719 -88.95777344 220.68382812 -89.75 219.875 C-90.93239258 218.69744141 -90.93239258 218.69744141 -92.13867188 217.49609375 C-97.9375 211.64203869 -97.9375 211.64203869 -97.9375 209.375 C-98.5975 209.375 -99.2575 209.375 -99.9375 209.375 C-101.58603852 207.24231819 -103.08637324 205.12399269 -104.5625 202.875 C-105.2280188 201.86590576 -105.2280188 201.86590576 -105.90698242 200.83642578 C-125.16534655 171.01546488 -132.11814951 135.35721413 -124.9375 100.375 C-116.5264139 65.705707 -95.21343858 36.1959376 -64.796875 17.57421875 C-44.95848323 5.95385507 -22.91692652 -0.03105848 0 0 Z " fill="#78E28C" transform="translate(250.9375,122.625)"/>
<path d="M0 0 C0.71947815 0.00202423 1.4389563 0.00404846 2.18023682 0.00613403 C3.31198586 0.00350555 3.31198586 0.00350555 4.46659851 0.00082397 C6.97427638 -0.00359638 9.48188434 -0.00065504 11.98956299 0.00271606 C13.72733066 0.00204287 15.46509825 0.00107271 17.2028656 -0.00018311 C20.8522328 -0.0016605 24.50157558 0.00049502 28.15093994 0.00515747 C32.82848217 0.01084211 37.50596687 0.00758406 42.18350697 0.00158501 C45.77543063 -0.00203032 49.36734068 -0.00087732 52.95926476 0.0017128 C54.6836415 0.00238003 56.40801948 0.00156073 58.13239479 -0.00076675 C60.54551075 -0.00330777 62.958534 0.00056838 65.37164307 0.00613403 C66.44175125 0.00309769 66.44175125 0.00309769 67.53347778 0 C70.82381849 0.01405024 73.82335495 0.12058528 76.97003174 1.13552856 C77.04553144 6.36010762 77.09925338 11.58435296 77.13482666 16.80935669 C77.14969297 18.5779678 77.16999203 20.34654358 77.1963501 22.11502075 C77.74114497 59.67382041 65.10808856 91.92623991 38.97003174 119.13552856 C29.62609019 128.25557375 19.52769013 135.13475287 7.97003174 141.13552856 C7.0535083 141.63697388 6.13698486 142.13841919 5.19268799 142.65505981 C4.31483643 143.1229895 3.43698486 143.59091919 2.53253174 144.07302856 C1.7500708 144.494552 0.96760986 144.91607544 0.16143799 145.35037231 C-2.40766042 146.27085142 -3.47392092 145.88884405 -6.02996826 145.13552856 C-6.35343127 139.19529312 -6.58811013 133.26025836 -6.74407959 127.31326294 C-6.80912429 125.29510174 -6.89760302 123.2775455 -7.01068115 121.26150513 C-7.90109664 104.96811033 -7.90109664 104.96811033 -4.79260254 100.26235962 C-1.36567747 96.69744395 2.66120416 94.48371381 6.97003174 92.13552856 C13.73484107 87.01382841 18.76880727 80.98411806 22.92706299 73.60427856 C23.27124268 73.11959106 23.61542236 72.63490356 23.97003174 72.13552856 C24.63003174 72.13552856 25.29003174 72.13552856 25.97003174 72.13552856 C26.07573486 71.608302 26.18143799 71.08107544 26.29034424 70.53787231 C27.49542858 66.27852249 29.54925073 62.33938287 31.39971924 58.32693481 C33.68239611 52.82697563 34.73959451 46.94079519 35.97003174 41.13552856 C34.73325684 41.17105835 33.49648193 41.20658813 32.222229 41.24319458 C27.65091032 41.37317628 23.07943189 41.49647202 18.50787354 41.6177063 C16.52605225 41.67120751 14.54427962 41.72654287 12.56256104 41.78372192 C9.7206268 41.86540711 6.87858512 41.94058029 4.03643799 42.01443481 C3.14477432 42.04146988 2.25311066 42.06850494 1.33442688 42.09635925 C-0.78644272 42.14828771 -2.90849635 42.14741768 -5.02996826 42.13552856 C-6.92620028 40.23929654 -6.15894452 37.47182497 -6.16891479 34.94924927 C-6.16689056 34.08259644 -6.16486633 33.2159436 -6.16278076 32.32302856 C-6.16373749 31.43897339 -6.16469421 30.55491821 -6.16567993 29.64407349 C-6.16636178 27.77110727 -6.16450719 25.89813871 -6.16033936 24.025177 C-6.15499115 21.14784469 -6.16028419 18.27066849 -6.16668701 15.39334106 C-6.16602623 13.57823655 -6.16474507 11.76313214 -6.16278076 9.94802856 C-6.16480499 9.08137573 -6.16682922 8.2147229 -6.16891479 7.32180786 C-6.14008091 0.02655929 -6.14008091 0.02655929 0 0 Z " fill="#3FC16E" transform="translate(300.02996826171875,227.86447143554688)"/>
<path d="M0 0 C34.80738277 -0.87388176 65.83252797 3.97567615 94 26 C96.2105252 27.59355246 98.42256745 29.18492815 100.63671875 30.7734375 C101.31154297 31.38058594 101.31154297 31.38058594 102 32 C102 32.66 102 33.32 102 34 C102.66 34 103.32 34 104 34 C104 34.66 104 35.32 104 36 C104.99 36.33 105.98 36.66 107 37 C107 37.66 107 38.32 107 39 C107.66 39 108.32 39 109 39 C109 39.66 109 40.32 109 41 C109.66 41 110.32 41 111 41 C117.077788 47.4487328 126.86424347 57.95524798 128 67 C126.45633836 68.54366164 124.97355995 68.18803056 122.82250977 68.25634766 C121.93390762 68.28532135 121.04530548 68.31429504 120.129776 68.34414673 C116.02691238 68.44177055 111.92422627 68.51582448 107.82055664 68.56982422 C105.66424786 68.6063417 103.50816128 68.66076748 101.3527832 68.73388672 C81.13721755 69.40934715 81.13721755 69.40934715 74.81640625 63.68359375 C73.52150847 62.14122311 72.24754413 60.5809178 71 59 C52.44580833 43.74899521 30.20121014 38.21087937 6.515625 40.30859375 C-11.13343837 42.52453171 -26.70580194 48.82582414 -40.14453125 60.53125 C-42 62 -42 62 -44 62 C-44.23203125 62.55429688 -44.4640625 63.10859375 -44.703125 63.6796875 C-46.3407703 66.60969144 -48.42347505 68.70682407 -50.75 71.125 C-54.85546113 75.53941044 -58.04509411 79.92350004 -60.94140625 85.19921875 C-61.29074219 85.79347656 -61.64007813 86.38773437 -62 87 C-62.33 87 -62.66 87 -63 87 C-62.24837464 79.54083183 -59.28200324 73.59284771 -55.98828125 66.98632812 C-55.35482525 65.71315667 -54.72908828 64.43609786 -54.11328125 63.15429688 C-48.47444285 51.43010573 -40.92594269 41.27494127 -33 31 C-32.24203125 29.99195313 -31.4840625 28.98390625 -30.703125 27.9453125 C-30.14109375 27.30335938 -29.5790625 26.66140625 -29 26 C-28.34 26 -27.68 26 -27 26 C-27 25.34 -27 24.68 -27 24 C-25.63671875 22.58984375 -25.63671875 22.58984375 -23.6875 20.9375 C-22.96046875 20.32003906 -22.2334375 19.70257813 -21.484375 19.06640625 C-20.66453125 18.38449219 -19.8446875 17.70257813 -19 17 C-18.09765625 16.24589844 -17.1953125 15.49179688 -16.265625 14.71484375 C-2.85245806 3.61748602 -2.85245806 3.61748602 2 2 C1.34 1.34 0.68 0.68 0 0 Z " fill="#4CC16D" transform="translate(236,123)"/>
<path d="M0 0 C0 2.31 0 4.62 0 7 C0.66 5.35 1.32 3.7 2 2 C5.32370581 10.85592665 -2.4108204 25.5178677 -6.01171875 33.78125 C-10.66480013 43.95386476 -16.73061266 53.50065125 -24 62 C-24.68707031 62.80824219 -25.37414062 63.61648438 -26.08203125 64.44921875 C-37.04441674 76.98588727 -49.2583038 86.34606101 -64 94 C-64.91652344 94.50144531 -65.83304687 95.00289063 -66.77734375 95.51953125 C-67.65519531 95.98746094 -68.53304688 96.45539063 -69.4375 96.9375 C-70.61119141 97.56978516 -70.61119141 97.56978516 -71.80859375 98.21484375 C-74.37769216 99.13532286 -75.44395266 98.75331549 -78 98 C-78.32346301 92.05976455 -78.55814187 86.1247298 -78.71411133 80.17773438 C-78.77915603 78.15957317 -78.86763476 76.14201693 -78.98071289 74.12597656 C-79.87112838 57.83258176 -79.87112838 57.83258176 -76.76263428 53.12683105 C-73.33570921 49.56191539 -69.30882757 47.34818524 -65 45 C-58.23519066 39.87829985 -53.20122447 33.8485895 -49.04296875 26.46875 C-48.69878906 25.9840625 -48.35460937 25.499375 -48 25 C-47.34 25 -46.68 25 -46 25 C-45.67 23.68 -45.34 22.36 -45 21 C-44.01 21.99 -43.02 22.98 -42 24 C-34.61797895 21.27777965 -27.81356048 17.92576185 -21 14 C-20.30003906 13.61070312 -19.60007812 13.22140625 -18.87890625 12.8203125 C-13.69305964 9.79436579 -9.51801356 5.94904602 -5.19921875 1.79296875 C-3 0 -3 0 0 0 Z " fill="#3CB664" transform="translate(372,275)"/>
<path d="M0 0 C1.7660291 1.7660291 1.12614848 4.29402289 1.12698364 6.68748474 C1.12980347 7.92284973 1.13262329 9.15821472 1.13552856 10.43101501 C1.13358396 11.81265273 1.13153577 13.19429031 1.12939453 14.57592773 C1.13074854 16.0210881 1.13252847 17.46624811 1.13470459 18.91140747 C1.13927935 22.84731598 1.13748908 26.7831984 1.1343255 30.71910739 C1.13180164 34.83015945 1.13413956 38.94120921 1.13571167 43.05226135 C1.13753349 49.95842898 1.13512694 56.86458594 1.13037109 63.77075195 C1.1249306 71.76359362 1.12668953 79.75640978 1.1321975 87.74925083 C1.13673083 94.60105242 1.13737803 101.45284633 1.13475883 108.30464894 C1.133197 112.40153838 1.1329997 116.49841581 1.13629532 120.59530449 C1.13917715 124.44723712 1.13719256 128.29913677 1.13140106 132.15106583 C1.13007505 133.56766391 1.1304649 134.98426475 1.13266373 136.40086174 C1.13538146 138.32908405 1.13137494 140.25731239 1.12698364 142.18553162 C1.12660662 143.26641776 1.12622959 144.34730391 1.12584114 145.46094418 C1 148 1 148 0 150 C-7.2503447 151.60926963 -15.11692396 151.15184755 -22.5 151.125 C-23.56347656 151.12886719 -24.62695312 151.13273438 -25.72265625 151.13671875 C-32.20918841 151.12875981 -38.56112098 150.78957204 -45 150 C-45 149.67 -45 149.34 -45 149 C-43.89140625 148.93941406 -42.7828125 148.87882813 -41.640625 148.81640625 C-40.1770718 148.73197049 -38.71353075 148.64732401 -37.25 148.5625 C-36.52039063 148.52318359 -35.79078125 148.48386719 -35.0390625 148.44335938 C-30.9314104 148.21701698 -30.9314104 148.21701698 -26.90063477 147.45336914 C-24.36747087 146.84911926 -22.54270022 147.46275799 -20 148 C-17.60554707 148.09137082 -15.2086903 148.13004993 -12.8125 148.125 C-11.58144531 148.12757813 -10.35039062 148.13015625 -9.08203125 148.1328125 C-6.08753603 148.21388949 -6.08753603 148.21388949 -4 147 C-2.4979259 140.35737915 -2.86693857 133.49437207 -2.88647461 126.72094727 C-2.88675702 125.38003034 -2.88659769 124.03911325 -2.8860321 122.69819641 C-2.88574625 119.07474586 -2.89160866 115.45132869 -2.89860606 111.82788587 C-2.90487495 108.0349121 -2.90544619 104.2419375 -2.90663147 100.44895935 C-2.90973438 93.27391015 -2.91793372 86.09887626 -2.92798096 78.92383379 C-2.93917443 70.7521241 -2.94466069 62.58041366 -2.94967639 54.4086982 C-2.96011723 37.60578985 -2.97769648 20.80289688 -3 4 C-3.99 3.67 -4.98 3.34 -6 3 C-8.76239351 4.41488448 -10.80363095 5.80363095 -13 8 C-15.1640625 8.1953125 -15.1640625 8.1953125 -17.625 8.125 C-18.44226563 8.10695312 -19.25953125 8.08890625 -20.1015625 8.0703125 C-20.72804687 8.04710937 -21.35453125 8.02390625 -22 8 C-16.72757799 1.28964471 -8.14215523 -0.74019593 0 0 Z " fill="#498151" transform="translate(276,229)"/>
<path d="M0 0 C5.28 0.33 10.56 0.66 16 1 C16 1.33 16 1.66 16 2 C15.34104736 2.06993164 14.68209473 2.13986328 14.00317383 2.21191406 C-8.11567771 4.6144157 -26.95563838 8.55935001 -44.14453125 23.53125 C-46 25 -46 25 -48 25 C-48.23203125 25.55429688 -48.4640625 26.10859375 -48.703125 26.6796875 C-50.3407703 29.60969144 -52.42347505 31.70682407 -54.75 34.125 C-58.85546113 38.53941044 -62.04509411 42.92350004 -64.94140625 48.19921875 C-65.29074219 48.79347656 -65.64007813 49.38773438 -66 50 C-66.33 50 -66.66 50 -67 50 C-66.4735974 44.55348777 -65.09267869 40.39103423 -62.6875 35.5 C-62.39166016 34.87480469 -62.09582031 34.24960938 -61.79101562 33.60546875 C-59.71984305 29.2841886 -57.41554149 25.13788123 -55 21 C-53.68 21 -52.36 21 -51 21 C-50.34 19.68 -49.68 18.36 -49 17 C-46.33333333 17 -43.66666667 17 -41 17 C-40.67 15.35 -40.34 13.7 -40 12 C-39.01 12 -38.02 12 -37 12 C-36.29875 11.566875 -35.5975 11.13375 -34.875 10.6875 C-31.62859739 8.78200282 -28.51288124 7.89494721 -24.890625 6.94140625 C-22.78753855 6.16478132 -22.78753855 6.16478132 -22.234375 3.90234375 C-22.15703125 3.27457031 -22.0796875 2.64679688 -22 2 C-19.83125748 2.50603992 -18.00032373 2.99983813 -16 4 C-15.67 3.01 -15.34 2.02 -15 1 C-14.34 1.33 -13.68 1.66 -13 2 C-12.443125 1.855625 -11.88625 1.71125 -11.3125 1.5625 C-7.55652956 0.64888557 -3.51305762 0.24347119 0 2 C0 1.34 0 0.68 0 0 Z " fill="#2E9755" transform="translate(240,160)"/>
<path d="M0 0 C0.33 1.32 0.66 2.64 1 4 C0.1028125 4.309375 0.1028125 4.309375 -0.8125 4.625 C-4.5800039 6.99314531 -5.63848496 10.91545487 -7 15 C-9.44194244 16.60170418 -11.97888916 17.93042775 -14.5546875 19.3046875 C-17.48979885 21.33957301 -18.47818833 22.76455166 -20 26 C-20.25189935 28.79617302 -20.35131501 31.35690815 -20.29296875 34.14453125 C-20.28872391 34.91431808 -20.28447906 35.68410492 -20.28010559 36.47721863 C-20.26338597 38.92267646 -20.2257477 41.36729357 -20.1875 43.8125 C-20.17244441 45.47589951 -20.15875754 47.13931201 -20.14648438 48.80273438 C-20.11350465 52.86881082 -20.06177006 56.93426313 -20 61 C-15.85594083 59.09579665 -15.85594083 59.09579665 -12.3125 56.3125 C-11.879375 55.879375 -11.44625 55.44625 -11 55 C-10.01 55 -9.02 55 -8 55 C-7.21625 54.505 -6.4325 54.01 -5.625 53.5 C-2.76399735 51.86514134 -1.23056872 51.72309411 2 52 C2 51.34 2 50.68 2 50 C2.99 50 3.98 50 5 50 C5 49.34 5 48.68 5 48 C6.485 48.495 6.485 48.495 8 49 C2.16478967 53.01429363 -3.74265732 56.68298056 -10 60 C-10.87398438 60.48082031 -11.74796875 60.96164062 -12.6484375 61.45703125 C-13.52757812 61.92496094 -14.40671875 62.39289063 -15.3125 62.875 C-16.11300781 63.30554688 -16.91351563 63.73609375 -17.73828125 64.1796875 C-20.36162834 65.13116054 -21.3924158 64.77340406 -24 64 C-24.32346301 58.05976455 -24.55814187 52.1247298 -24.71411133 46.17773438 C-24.77915603 44.15957317 -24.86763476 42.14201693 -24.98071289 40.12597656 C-25.87112838 23.83258176 -25.87112838 23.83258176 -22.76263428 19.12683105 C-19.33570921 15.56191539 -15.30882757 13.34818524 -11 11 C-7.8572372 8.62722774 -5.19538836 6.28279523 -2.6875 3.25 C-1.91986328 2.32960938 -1.91986328 2.32960938 -1.13671875 1.390625 C-0.76160156 0.93171875 -0.38648438 0.4728125 0 0 Z " fill="#1B5F2F" transform="translate(318,309)"/>
<path d="M0 0 C0.71947815 0.00202423 1.4389563 0.00404846 2.18023682 0.00613403 C3.31198586 0.00350555 3.31198586 0.00350555 4.46659851 0.00082397 C6.97427638 -0.00359638 9.48188434 -0.00065504 11.98956299 0.00271606 C13.72733066 0.00204287 15.46509825 0.00107271 17.2028656 -0.00018311 C20.8522328 -0.0016605 24.50157558 0.00049502 28.15093994 0.00515747 C32.82848217 0.01084211 37.50596687 0.00758406 42.18350697 0.00158501 C45.77543063 -0.00203032 49.36734068 -0.00087732 52.95926476 0.0017128 C54.6836415 0.00238003 56.40801948 0.00156073 58.13239479 -0.00076675 C60.54551075 -0.00330777 62.958534 0.00056838 65.37164307 0.00613403 C66.44175125 0.00309769 66.44175125 0.00309769 67.53347778 0 C70.93018 0.01450442 73.63934289 0.30285635 76.97003174 1.13552856 C76.97003174 14.00552856 76.97003174 26.87552856 76.97003174 40.13552856 C76.64003174 40.13552856 76.31003174 40.13552856 75.97003174 40.13552856 C75.97003174 27.59552856 75.97003174 15.05552856 75.97003174 2.13552856 C49.57003174 2.46552856 23.17003174 2.79552856 -4.02996826 3.13552856 C-4.35996826 15.34552856 -4.68996826 27.55552856 -5.02996826 40.13552856 C-0.51696045 40.10072388 -0.51696045 40.10072388 4.08721924 40.06521606 C6.99297666 40.04962998 9.89872948 40.0374793 12.80450439 40.02566528 C14.82796301 40.01559186 16.85140702 40.00193261 18.87481689 39.98464966 C21.77898763 39.96046009 24.68296635 39.94905908 27.58721924 39.94021606 C28.4955954 39.92989349 29.40397156 39.91957092 30.33987427 39.90893555 C31.18059479 39.90878448 32.02131531 39.90863342 32.88751221 39.90847778 C34.0000386 39.90181595 34.0000386 39.90181595 35.13504028 39.89501953 C36.97003174 40.13552856 36.97003174 40.13552856 38.97003174 42.13552856 C38.63309231 45.50492289 37.08183766 47.5646344 34.97003174 50.13552856 C35.30003174 47.16552856 35.63003174 44.19552856 35.97003174 41.13552856 C34.73325684 41.17105835 33.49648193 41.20658813 32.222229 41.24319458 C27.65091032 41.37317628 23.07943189 41.49647202 18.50787354 41.6177063 C16.52605225 41.67120751 14.54427962 41.72654287 12.56256104 41.78372192 C9.7206268 41.86540711 6.87858512 41.94058029 4.03643799 42.01443481 C3.14477432 42.04146988 2.25311066 42.06850494 1.33442688 42.09635925 C-0.78644272 42.14828771 -2.90849635 42.14741768 -5.02996826 42.13552856 C-6.92620028 40.23929654 -6.15894452 37.47182497 -6.16891479 34.94924927 C-6.16689056 34.08259644 -6.16486633 33.2159436 -6.16278076 32.32302856 C-6.16373749 31.43897339 -6.16469421 30.55491821 -6.16567993 29.64407349 C-6.16636178 27.77110727 -6.16450719 25.89813871 -6.16033936 24.025177 C-6.15499115 21.14784469 -6.16028419 18.27066849 -6.16668701 15.39334106 C-6.16602623 13.57823655 -6.16474507 11.76313214 -6.16278076 9.94802856 C-6.16480499 9.08137573 -6.16682922 8.2147229 -6.16891479 7.32180786 C-6.14008091 0.02655929 -6.14008091 0.02655929 0 0 Z " fill="#35804F" transform="translate(300.02996826171875,227.86447143554688)"/>
<path d="M0 0 C-2.15590523 2.15590523 -4.44917646 3.38852529 -7.09228516 4.8671875 C-10.14033075 6.67713523 -12.89976206 8.81742937 -15.6875 11 C-16.24244141 11.42539063 -16.79738281 11.85078125 -17.36914062 12.2890625 C-19.81644961 14.18638172 -22.09892021 16.10079305 -24.26953125 18.3125 C-26 20 -26 20 -28 20 C-28.33 20.99 -28.66 21.98 -29 23 C-29.66 23 -30.32 23 -31 23 C-31 23.66 -31 24.32 -31 25 C-31.66 25 -32.32 25 -33 25 C-33.28875 25.639375 -33.5775 26.27875 -33.875 26.9375 C-35 29 -35 29 -37 30 C-37.36541918 25.73677629 -36.49759276 23.45820536 -34 20 C-33.34 19.67 -32.68 19.34 -32 19 C-32.0928125 17.824375 -32.0928125 17.824375 -32.1875 16.625 C-32.125625 15.75875 -32.06375 14.8925 -32 14 C-31.01 13.34 -30.02 12.68 -29 12 C-31.475 11.01 -31.475 11.01 -34 10 C-34 9.67 -34 9.34 -34 9 C-31.69 9 -29.38 9 -27 9 C-27.99 8.34 -28.98 7.68 -30 7 C-22.02893382 0.31699838 -9.99131266 -0.17528619 0 0 Z " fill="#90E198" transform="translate(240,124)"/>
<path d="M0 0 C1.28506877 4.51692082 0.47268288 7.58195135 -1 12 C-1.66 12 -2.32 12 -3 12 C-2.82654053 12.95422852 -2.65308105 13.90845703 -2.47436523 14.89160156 C-1.81462875 19.54505447 -2.1231885 24.05876557 -2.41015625 28.734375 C-2.86856165 37.30843406 -3.13068807 45.86767654 -3.24609375 54.453125 C-3.26266022 55.58399536 -3.27922668 56.71486572 -3.29629517 57.88000488 C-3.36312701 62.5335487 -3.42586475 67.18707329 -3.47680664 71.84082031 C-3.51622077 75.29510332 -3.56769025 78.749034 -3.62109375 82.203125 C-3.6295079 83.26122375 -3.63792206 84.31932251 -3.64659119 85.40948486 C-3.66323318 86.37940369 -3.67987518 87.34932251 -3.69702148 88.34863281 C-3.71248268 89.62809784 -3.71248268 89.62809784 -3.72825623 90.93341064 C-4 93 -4 93 -6 95 C-10.23493122 96.41164374 -12.91543861 95.6148266 -17 94 C-16.67 92.35 -16.34 90.7 -16 89 C-16.66 88.67 -17.32 88.34 -18 88 C-16.58318366 88.31182069 -15.16655349 88.62448737 -13.75 88.9375 C-12.96109375 89.11152344 -12.1721875 89.28554688 -11.359375 89.46484375 C-9.23111951 89.9475772 -7.11610189 90.46707028 -5 91 C-5.01110306 90.05167801 -5.02220612 89.10335602 -5.03364563 88.126297 C-5.13551147 79.13889024 -5.21019839 70.15160236 -5.25906086 61.16374683 C-5.28502725 56.54422034 -5.32018463 51.92516413 -5.37719727 47.3059082 C-5.43198434 42.83842613 -5.46151767 38.37139309 -5.47438622 33.90360069 C-5.48354313 32.20891958 -5.50142187 30.51425983 -5.52865028 28.81977272 C-5.69451352 18.05844736 -4.81470324 9.83556081 0 0 Z " fill="#68B879" transform="translate(242,248)"/>
<path d="M0 0 C26.73 0 53.46 0 81 0 C81.061875 6.909375 81.12375 13.81875 81.1875 20.9375 C81.22846802 24.18194946 81.22846802 24.18194946 81.27026367 27.49194336 C81.27903685 29.2329045 81.28667881 30.97387186 81.29296875 32.71484375 C81.3159906 34.0384491 81.3159906 34.0384491 81.33947754 35.38879395 C81.34192572 41.27666949 80.63635351 46.65743078 78 52 C77.01 52.495 77.01 52.495 76 53 C76 50.69 76 48.38 76 46 C75.01 46 74.02 46 73 46 C74.47665555 41.69308797 75.95632305 39.80459619 79 36 C79.33 24.45 79.66 12.9 80 1 C53.6 1 27.2 1 0 1 C0 0.67 0 0.34 0 0 Z " fill="#4CB971" transform="translate(295,230)"/>
<path d="M0 0 C-4.75 4 -4.75 4 -7 4 C-7.23203125 4.55429688 -7.4640625 5.10859375 -7.703125 5.6796875 C-9.3407703 8.60969144 -11.42347505 10.70682407 -13.75 13.125 C-17.85546113 17.53941044 -21.04509411 21.92350004 -23.94140625 27.19921875 C-24.29074219 27.79347656 -24.64007813 28.38773438 -25 29 C-25.33 29 -25.66 29 -26 29 C-25.47293192 23.49427537 -24.04298066 19.26336536 -21.625 14.3125 C-21.32078125 13.66216797 -21.0165625 13.01183594 -20.703125 12.34179688 C-19.0878303 8.95589069 -17.39082364 5.89685687 -15 3 C-14.01 3.33 -13.02 3.66 -12 4 C-11.34 3.01 -10.68 2.02 -10 1 C-3.7826087 -1.26086957 -3.7826087 -1.26086957 0 0 Z " fill="#278748" transform="translate(199,181)"/>
<path d="M0 0 C4.19513465 -0.05014413 8.3901018 -0.08606394 12.58544922 -0.10986328 C14.00702968 -0.1198044 15.42859036 -0.13336208 16.85009766 -0.15087891 C25.75113592 -0.25766624 34.24745708 0.15418317 43 2 C40.82711465 4.17288535 39.98970481 4.64827002 37 5 C36.42636719 4.68933594 35.85273438 4.37867187 35.26171875 4.05859375 C28.71347498 0.993699 19.97109592 1.63608993 13 3 C12.01 3 11.02 3 10 3 C4.42587627 3.47778203 -0.715873 6.69369701 -4.609375 10.625 C-6.31883089 12.31524853 -7.67952348 12.5359047 -10 13 C-11.96822886 14.96822886 -11.66248381 18.34808709 -12 21 C-13.32 20.67 -14.64 20.34 -16 20 C-15.26128269 14.82897885 -13.95101494 12.56419031 -9.8125 9.3125 C-6.0161335 6.58501339 -2.12491172 4.19410198 2 2 C1.34 1.34 0.68 0.68 0 0 Z " fill="#359E55" transform="translate(236,123)"/>
<path d="M0 0 C0.33 1.32 0.66 2.64 1 4 C0.1028125 4.309375 0.1028125 4.309375 -0.8125 4.625 C-4.5800039 6.99314531 -5.63848496 10.91545487 -7 15 C-9.44194244 16.60170418 -11.97888916 17.93042775 -14.5546875 19.3046875 C-17.48979885 21.33957301 -18.47818833 22.76455166 -20 26 C-20.25189935 28.79617302 -20.35131501 31.35690815 -20.29296875 34.14453125 C-20.28872391 34.91431808 -20.28447906 35.68410492 -20.28010559 36.47721863 C-20.26338597 38.92267646 -20.2257477 41.36729357 -20.1875 43.8125 C-20.17244441 45.47589951 -20.15875754 47.13931201 -20.14648438 48.80273438 C-20.11350465 52.86881082 -20.06177006 56.93426313 -20 61 C-18.02 60.505 -18.02 60.505 -16 60 C-16 60.66 -16 61.32 -16 62 C-18.97 62.495 -18.97 62.495 -22 63 C-22.12375961 57.11018515 -22.21441514 51.22112988 -22.2746582 45.33032227 C-22.2997755 43.32725844 -22.33387595 41.32428602 -22.37719727 39.3215332 C-22.43797188 36.43938634 -22.46623732 33.55845279 -22.48828125 30.67578125 C-22.51408768 29.78288895 -22.5398941 28.88999664 -22.56648254 27.970047 C-22.56849083 23.50049572 -22.50531647 21.63443898 -19.63720703 18.03344727 C-18.76692871 17.36240967 -17.89665039 16.69137207 -17 16 C-16.11441406 15.27039063 -15.22882813 14.54078125 -14.31640625 13.7890625 C-13.40761719 13.07492187 -12.49882812 12.36078125 -11.5625 11.625 C-7.14102276 8.05794336 -3.50858271 4.4568483 0 0 Z " fill="#297847" transform="translate(318,309)"/>
<path d="M0 0 C1.65 1.32 3.3 2.64 5 4 C4.45912682 7.78611227 2.88277668 9.55400767 0 12 C-0.66 12 -1.32 12 -2 12 C-2.33 12.99 -2.66 13.98 -3 15 C-3.66 15 -4.32 15 -5 15 C-5 15.66 -5 16.32 -5 17 C-5.66 17 -6.32 17 -7 17 C-7.28875 17.639375 -7.5775 18.27875 -7.875 18.9375 C-9 21 -9 21 -11 22 C-11.36541918 17.73677629 -10.49759276 15.45820536 -8 12 C-7.34 11.67 -6.68 11.34 -6 11 C-6.0928125 9.824375 -6.0928125 9.824375 -6.1875 8.625 C-6.125625 7.75875 -6.06375 6.8925 -6 6 C-5.01 5.34 -4.02 4.68 -3 4 C-5.475 3.01 -5.475 3.01 -8 2 C-8 1.67 -8 1.34 -8 1 C-6.865625 1.020625 -5.73125 1.04125 -4.5625 1.0625 C-1.18424326 1.41577477 -1.18424326 1.41577477 0 0 Z " fill="#94F09F" transform="translate(214,132)"/>
<path d="M0 0 C0.66644531 0.43570312 1.33289063 0.87140625 2.01953125 1.3203125 C10.97952684 7.10984811 19.86271209 12.5571475 30 16 C28.02 16.99 28.02 16.99 26 18 C26 17.34 26 16.68 26 16 C25.01 16.33 24.02 16.66 23 17 C23 16.34 23 15.68 23 15 C19.7 15 16.4 15 13 15 C13 15.66 13 16.32 13 17 C11.68 17 10.36 17 9 17 C9 16.34 9 15.68 9 15 C8.34 15 7.68 15 7 15 C6.67 14.01 6.34 13.02 6 12 C6.66 12 7.32 12 8 12 C8.33 11.34 8.66 10.68 9 10 C8.34 10 7.68 10 7 10 C7 9.34 7 8.68 7 8 C5.35 8.33 3.7 8.66 2 9 C2.226875 8.401875 2.45375 7.80375 2.6875 7.1875 C2.790625 6.465625 2.89375 5.74375 3 5 C1.60411246 3.35405861 1.60411246 3.35405861 0 2 C0 1.34 0 0.68 0 0 Z " fill="#61C571" transform="translate(194,319)"/>
<path d="M0 0 C1.50786167 4.52358501 -0.06340203 7.85098557 -2 12 C-3.40658575 14.42058712 -4.92654063 16.74754711 -6.5 19.0625 C-6.89171387 19.64692871 -7.28342773 20.23135742 -7.68701172 20.83349609 C-8.84375 22.47265625 -8.84375 22.47265625 -11 25 C-11.99 25 -12.98 25 -14 25 C-14 24.34 -14 23.68 -14 23 C-14.66 22.67 -15.32 22.34 -16 22 C-15.34 20.68 -14.68 19.36 -14 18 C-13.01 18.33 -12.02 18.66 -11 19 C-8.21936593 14.10906329 -6.72647126 10.74410362 -7 5 C-5 3 -5 3 -2.9375 2.5 C-2.298125 2.335 -1.65875 2.17 -1 2 C-0.67 1.34 -0.34 0.68 0 0 Z " fill="#56BF73" transform="translate(361,310)"/>
<path d="M0 0 C5.28 0.33 10.56 0.66 16 1 C16 1.33 16 1.66 16 2 C15.31486328 2.08040527 14.62972656 2.16081055 13.92382812 2.24365234 C10.78189598 2.61544411 7.64096914 2.99516187 4.5 3.375 C2.88351563 3.56449219 2.88351563 3.56449219 1.234375 3.7578125 C-3.4232464 4.32581511 -7.98667142 4.90596242 -12.53125 6.09375 C-16.27165214 7.07097218 -19.16672497 7.15971979 -23 7 C-22.67 5.35 -22.34 3.7 -22 2 C-19.83125748 2.50603992 -18.00032373 2.99983813 -16 4 C-15.67 3.01 -15.34 2.02 -15 1 C-14.34 1.33 -13.68 1.66 -13 2 C-12.443125 1.855625 -11.88625 1.71125 -11.3125 1.5625 C-7.55652956 0.64888557 -3.51305762 0.24347119 0 2 C0 1.34 0 0.68 0 0 Z " fill="#337E4D" transform="translate(240,160)"/>
<path d="M0 0 C0.33 0 0.66 0 1 0 C1.33 5.61 1.66 11.22 2 17 C2.33 17 2.66 17 3 17 C3.08302368 17.93066284 3.08302368 17.93066284 3.16772461 18.88012695 C3.42060348 21.69126637 3.67898834 24.50187322 3.9375 27.3125 C4.02451172 28.28896484 4.11152344 29.26542969 4.20117188 30.27148438 C4.28818359 31.20927734 4.37519531 32.14707031 4.46484375 33.11328125 C4.543396 33.97735596 4.62194824 34.84143066 4.70288086 35.73168945 C4.94787977 38.16086712 4.94787977 38.16086712 6 41 C6 42.66666667 6 44.33333333 6 46 C6.33 46.33 6.66 46.66 7 47 C7.04092937 49.33297433 7.04241723 51.66705225 7 54 C-1.96868565 37.91267149 -0.14605874 17.67984892 0 0 Z " fill="#78C07C" transform="translate(124,240)"/>
<path d="M0 0 C2.38564077 0.57584432 4.66682784 1.22227595 7 2 C7.495 3.485 7.495 3.485 8 5 C8.99 5.33 9.98 5.66 11 6 C11 6.66 11 7.32 11 8 C4.50345027 7.93309631 -1.99249306 7.84332852 -8.48852539 7.73754883 C-10.69906406 7.70426492 -12.90968843 7.67624388 -15.12036133 7.65356445 C-18.29545666 7.62008241 -21.46976417 7.56776948 -24.64453125 7.51171875 C-25.63524124 7.50532883 -26.62595123 7.4989389 -27.64668274 7.49235535 C-28.56741074 7.47256119 -29.48813873 7.45276703 -30.43676758 7.43237305 C-31.2472908 7.42126999 -32.05781403 7.41016693 -32.89289856 7.39872742 C-35.46159281 6.91265266 -36.36254242 5.98546334 -38 4 C-36.02 3.34 -34.04 2.68 -32 2 C-32.33 2.99 -32.66 3.98 -33 5 C-16.665 5.495 -16.665 5.495 0 6 C1.33333333 3 1.33333333 3 0 0 Z " fill="#70D581" transform="translate(352,182)"/>
<path d="M0 0 C0.66 0 1.32 0 2 0 C0.70700306 2.88437779 -0.65941363 4.87219421 -3 7 C-2.67 7.66 -2.34 8.32 -2 9 C-4 11 -4 11 -6.25 11.625 C-9.81221478 13.40610739 -11.25832027 15.76273792 -13.5234375 18.96875 C-16.43865524 22.97910244 -19.96099623 26.15773809 -24 29 C-22.56459331 24.70938218 -20.4156501 21.8113019 -17.5 18.375 C-15.18155004 15.62748625 -12.99502675 12.99254012 -11 10 C-10.34 10 -9.68 10 -9 10 C-9 9.34 -9 8.68 -9 8 C-7.28515625 6.30859375 -7.28515625 6.30859375 -5.0625 4.4375 C-4.33160156 3.81746094 -3.60070312 3.19742188 -2.84765625 2.55859375 C-2.23792969 2.04425781 -1.62820312 1.52992188 -1 1 C-0.67 0.67 -0.34 0.34 0 0 Z " fill="#258F47" transform="translate(218,139)"/>
<path d="M0 0 C0.99 0.33 1.98 0.66 3 1 C4.55266653 1.1464714 6.10995662 1.24694074 7.66796875 1.31640625 C9.00698242 1.37924805 9.00698242 1.37924805 10.37304688 1.44335938 C11.76620117 1.50233398 11.76620117 1.50233398 13.1875 1.5625 C14.12787109 1.60568359 15.06824219 1.64886719 16.03710938 1.69335938 C18.35792854 1.79938665 20.67885325 1.90145029 23 2 C23 2.33 23 2.66 23 3 C15.4819028 3.92191192 8.06972464 4.15252627 0.5 4.125 C-0.56347656 4.12886719 -1.62695312 4.13273437 -2.72265625 4.13671875 C-9.20918841 4.12875981 -15.56112098 3.78957204 -22 3 C-22 2.67 -22 2.34 -22 2 C-20.86820313 1.93941406 -19.73640625 1.87882812 -18.5703125 1.81640625 C-17.08852855 1.73200083 -15.6067584 1.64735283 -14.125 1.5625 C-13.37863281 1.52318359 -12.63226563 1.48386719 -11.86328125 1.44335938 C-7.6655901 1.19754863 -4.13355805 0 0 0 Z " fill="#5FB770" transform="translate(253,376)"/>
<path d="M0 0 C-0.33 0.33 -0.66 0.66 -1 1 C-0.34 1.66 0.32 2.32 1 3 C-1.86177057 4.43088528 -3.93375773 3.59991697 -7 3 C-7 3.99 -7 4.98 -7 6 C-11.67209049 7.43023178 -16.13103697 8.40380045 -21 9 C-21.33 9.99 -21.66 10.98 -22 12 C-24.31 12.33 -26.62 12.66 -29 13 C-25.77661907 9.29636787 -22.16556228 7.39486342 -17.75 5.4375 C-17.08266846 5.13521484 -16.41533691 4.83292969 -15.7277832 4.52148438 C-2.67741526 -1.33870763 -2.67741526 -1.33870763 0 0 Z " fill="#94D495" transform="translate(213,130)"/>
<path d="M0 0 C0.66 0 1.32 0 2 0 C0.32570492 4.64980861 -2.04958866 8.79189493 -4.5 13.0625 C-5.30293767 14.4695649 -6.1050476 15.87710254 -6.90625 17.28515625 C-7.43702148 18.21146851 -7.43702148 18.21146851 -7.97851562 19.15649414 C-9.04337688 21.07828366 -10.03072934 23.02851436 -11 25 C-11.99 24.67 -12.98 24.34 -14 24 C-13.34 22.68 -12.68 21.36 -12 20 C-12.33 19.67 -12.66 19.34 -13 19 C-13.04063832 17.33382885 -13.042721 15.66611905 -13 14 C-12.34 14.66 -11.68 15.32 -11 16 C-7.11265631 12.79181756 -7.11265631 12.79181756 -5.6875 8.1875 C-5.790625 7.465625 -5.89375 6.74375 -6 6 C-5.34 6.33 -4.68 6.66 -4 7 C-3.67 6.01 -3.34 5.02 -3 4 C-2.34 4 -1.68 4 -1 4 C-0.67 2.68 -0.34 1.36 0 0 Z " fill="#92EFA2" transform="translate(190,168)"/>
<path d="M0 0 C0.99 0.66 1.98 1.32 3 2 C2.67 4.97 2.34 7.94 2 11 C1.34 11 0.68 11 0 11 C-1.0745356 12.7763932 -1.0745356 12.7763932 -1 14 C-1.32380126 15.33568021 -1.65657551 16.66923011 -2 18 C-2 17.01 -2 16.02 -2 15 C-2.99 14.67 -3.98 14.34 -5 14 C-4.64989059 4.82713348 -4.64989059 4.82713348 -1.9375 1.375 C-1.298125 0.92125 -0.65875 0.4675 0 0 Z " fill="#99ED9E" transform="translate(165,216)"/>
<path d="M0 0 C-2.35137441 3.08111129 -3.72816836 4.74067601 -7.60546875 5.53125 C-9.03826172 5.70140625 -9.03826172 5.70140625 -10.5 5.875 C-14.55947585 6.39566935 -14.55947585 6.39566935 -17.82421875 8.671875 C-19.36512305 10.79882366 -19.36512305 10.79882366 -21 14 C-23.97 13.505 -23.97 13.505 -27 13 C-26.34 12.01 -25.68 11.02 -25 10 C-24.01 10 -23.02 10 -22 10 C-21.67 8.68 -21.34 7.36 -21 6 C-20.04287109 5.81824219 -20.04287109 5.81824219 -19.06640625 5.6328125 C-18.24011719 5.46523437 -17.41382813 5.29765625 -16.5625 5.125 C-15.73878906 4.96257812 -14.91507813 4.80015625 -14.06640625 4.6328125 C-13.38449219 4.42398438 -12.70257813 4.21515625 -12 4 C-11.67 3.34 -11.34 2.68 -11 2 C-9.2578125 1.11328125 -9.2578125 1.11328125 -7.125 0.3125 C-6.42632812 0.04050781 -5.72765625 -0.23148438 -5.0078125 -0.51171875 C-3 -1 -3 -1 0 0 Z " fill="#97F29D" transform="translate(203,137)"/>
<path d="M0 0 C2.125 0.375 2.125 0.375 4 1 C3.02208496 1.97876099 3.02208496 1.97876099 2.02441406 2.97729492 C-0.54740556 6.81734543 -0.51140344 9.90746994 -0.390625 14.36328125 C-0.38496521 15.15526413 -0.37930542 15.94724701 -0.37347412 16.76322937 C-0.35117308 19.28028094 -0.30099139 21.79588243 -0.25 24.3125 C-0.22992675 26.02406791 -0.21167742 27.73565824 -0.1953125 29.44726562 C-0.15132925 33.63206485 -0.08234769 37.815787 0 42 C1.98 41.505 1.98 41.505 4 41 C4 41.66 4 42.32 4 43 C1.03 43.495 1.03 43.495 -2 44 C-2.04934399 38.05518819 -2.08569282 32.11049491 -2.10986328 26.16552734 C-2.11993671 24.14206873 -2.13359595 22.11862472 -2.15087891 20.09521484 C-2.17506847 17.19104411 -2.18646949 14.28706539 -2.1953125 11.3828125 C-2.20563507 10.47443634 -2.21595764 9.56606018 -2.22659302 8.63015747 C-2.22674408 7.78943695 -2.22689514 6.94871643 -2.22705078 6.08251953 C-2.231492 5.34083527 -2.23593323 4.599151 -2.24050903 3.83499146 C-2 2 -2 2 0 0 Z " fill="#27864C" transform="translate(298,328)"/>
<path d="M0 0 C-0.72752816 9.03666554 -1.83834968 18.0113077 -3 27 C-3.33 27 -3.66 27 -4 27 C-4.06058594 25.89140625 -4.12117187 24.7828125 -4.18359375 23.640625 C-4.26802951 22.1770718 -4.35267599 20.71353075 -4.4375 19.25 C-4.47681641 18.52039063 -4.51613281 17.79078125 -4.55664062 17.0390625 C-4.77139947 12.91576322 -4.77139947 12.91576322 -5.64086914 8.89746094 C-5.81863892 7.95821777 -5.81863892 7.95821777 -6 7 C-4.0625 4.75 -4.0625 4.75 -2 3 C-2.66 2.67 -3.32 2.34 -4 2 C-1 0 -1 0 0 0 Z " fill="#83C785" transform="translate(166,227)"/>
<path d="M0 0 C0.66 0.66 1.32 1.32 2 2 C1.55387307 4.09336484 1.09490352 6.18466662 0.578125 8.26171875 C-0.51580487 13.44310282 -0.67712333 18.72442577 -1 24 C-1.09273646 25.38939094 -1.18652069 26.77871226 -1.28125 28.16796875 C-1.52696516 31.77825359 -1.76525892 35.38898294 -2 39 C-2.33 39 -2.66 39 -3 39 C-3 27.78 -3 16.56 -3 5 C-2.34 5 -1.68 5 -1 5 C-0.67 3.35 -0.34 1.7 0 0 Z " fill="#97E09B" transform="translate(128,223)"/>
<path d="M0 0 C0.66 0 1.32 0 2 0 C2.33 13.86 2.66 27.72 3 42 C1.02 41.67 -0.96 41.34 -3 41 C-2.01 40.505 -2.01 40.505 -1 40 C0.0006615 35.03853475 0.13560933 30.13993522 0.09765625 25.09765625 C0.0962413 24.3750914 0.09482635 23.65252655 0.09336853 22.9080658 C0.08782225 20.62616635 0.0752802 18.34436921 0.0625 16.0625 C0.05747804 14.50455872 0.05291636 12.94661588 0.04882812 11.38867188 C0.0378705 7.59240919 0.02064372 3.79622187 0 0 Z " fill="#74D483" transform="translate(273,336)"/>
<path d="M0 0 C2.33944736 0.28730055 4.6739143 0.61936779 7 1 C7.33 1.99 7.66 2.98 8 4 C7.24074219 4.18175781 6.48148438 4.36351562 5.69921875 4.55078125 C4.70535156 4.80214844 3.71148437 5.05351562 2.6875 5.3125 C1.20830078 5.67794922 1.20830078 5.67794922 -0.30078125 6.05078125 C-3.04299178 7.01511867 -4.09016326 7.9021178 -6 10 C-6.66 10 -7.32 10 -8 10 C-7.67 8.35 -7.34 6.7 -7 5 C-5.68 5 -4.36 5 -3 5 C-2.690625 4.360625 -2.38125 3.72125 -2.0625 3.0625 C-1 1 -1 1 0 0 Z " fill="#1B8D45" transform="translate(192,176)"/>
<path d="M0 0 C-4.75 4 -4.75 4 -7 4 C-7.226875 4.5775 -7.45375 5.155 -7.6875 5.75 C-9.33038023 8.5663661 -11.39533227 10.08077114 -14 12 C-14 10.68 -14 9.36 -14 8 C-13.01 8 -12.02 8 -11 8 C-11 7.34 -11 6.68 -11 6 C-12.32 6.33 -13.64 6.66 -15 7 C-14.67 6.01 -14.34 5.02 -14 4 C-13.34 4 -12.68 4 -12 4 C-11.34 3.01 -10.68 2.02 -10 1 C-3.7826087 -1.26086957 -3.7826087 -1.26086957 0 0 Z " fill="#247B45" transform="translate(199,181)"/>
<path d="M0 0 C2.97 0.495 2.97 0.495 6 1 C6.33 1.99 6.66 2.98 7 4 C7.66 4 8.32 4 9 4 C9 5.65 9 7.3 9 9 C6.69 9 4.38 9 2 9 C0.50178941 5.62902617 0 3.79557881 0 0 Z " fill="#5FB96D" transform="translate(336,158)"/>
<path d="M0 0 C0.99 0 1.98 0 3 0 C3 1.65 3 3.3 3 5 C4.89179203 5.6814823 4.89179203 5.6814823 7 6 C7.66 5.34 8.32 4.68 9 4 C9.95024979 7.69541586 9.95024979 10.30458414 9 14 C7.2925002 12.71937515 5.62626404 11.38232443 4 10 C4 9.34 4 8.68 4 8 C3.34 8 2.68 8 2 8 C0.93224776 6.03533587 -0.06553465 4.03144641 -1 2 C-0.67 1.34 -0.34 0.68 0 0 Z " fill="#68C97C" transform="translate(149,324)"/>
<path d="M0 0 C1.41805831 0.28482368 2.83440379 0.57818144 4.25 0.875 C5.03890625 1.03742188 5.8278125 1.19984375 6.640625 1.3671875 C8.96831144 1.99150075 10.89031952 2.84838542 13 4 C12.67 4.99 12.34 5.98 12 7 C7.70700357 8.26264601 5.12168689 7.62950412 1 6 C1.33 4.35 1.66 2.7 2 1 C1.34 0.67 0.68 0.34 0 0 Z " fill="#69D87D" transform="translate(224,336)"/>
<path d="M0 0 C0.32712342 6.13053511 0.39366878 10.62669111 -3 16 C-3.144375 15.401875 -3.28875 14.80375 -3.4375 14.1875 C-3.8872439 12.43849596 -4.42892341 10.71322977 -5 9 C-5.66 9 -6.32 9 -7 9 C-5.99432671 5.98298013 -3.90847918 0 0 0 Z " fill="#5CCD79" transform="translate(375,267)"/>
<path d="M0 0 C0.73605469 0.47050781 1.47210938 0.94101562 2.23046875 1.42578125 C3.20628906 2.04839844 4.18210938 2.67101562 5.1875 3.3125 C6.15042969 3.92738281 7.11335937 4.54226563 8.10546875 5.17578125 C10.00448707 6.37259847 11.92369222 7.53808537 13.86328125 8.66796875 C14.92095703 9.32732422 14.92095703 9.32732422 16 10 C16 10.33 16 10.66 16 11 C13.03 10.67 10.06 10.34 7 10 C7 9.34 7 8.68 7 8 C5.35 8.33 3.7 8.66 2 9 C2.226875 8.401875 2.45375 7.80375 2.6875 7.1875 C2.790625 6.465625 2.89375 5.74375 3 5 C1.60411246 3.35405861 1.60411246 3.35405861 0 2 C0 1.34 0 0.68 0 0 Z " fill="#60B36F" transform="translate(194,319)"/>
<path d="M0 0 C26.17654243 -0.41277905 26.17654243 -0.41277905 36 2 C33.82711465 4.17288535 32.98970481 4.64827002 30 5 C28.65753688 4.35191436 27.32567199 3.68177416 26 3 C20.37582448 2.0019274 14.76210838 1.70189248 9.0625 1.4375 C7.75055664 1.37272461 7.75055664 1.37272461 6.41210938 1.30664062 C4.27488005 1.20153099 2.13745762 1.10036015 0 1 C0 0.67 0 0.34 0 0 Z " fill="#3D8F58" transform="translate(243,123)"/>
<path d="M0 0 C1.670625 0.061875 1.670625 0.061875 3.375 0.125 C3.97232819 2.88764289 4.375 5.28532769 4.375 8.125 C3.385 8.455 2.395 8.785 1.375 9.125 C-0.935 6.815 -3.245 4.505 -5.625 2.125 C-3.625 0.125 -3.625 0.125 0 0 Z " fill="#64CD7B" transform="translate(163.625,336.875)"/>
<path d="M0 0 C0.33 0 0.66 0 1 0 C1.18175781 0.79664063 1.36351562 1.59328125 1.55078125 2.4140625 C2.8736021 7.99026116 4.20883578 12.94932189 7 18 C7 18.66 7 19.32 7 20 C6.01 20 5.02 20 4 20 C3.18432826 18.56429734 2.37257907 17.12636566 1.5625 15.6875 C1.11003906 14.88699219 0.65757812 14.08648437 0.19140625 13.26171875 C-1 11 -1 11 -2 8 C-1.34 7.67 -0.68 7.34 0 7 C0 4.69 0 2.38 0 0 Z " fill="#75B97A" transform="translate(165,270)"/>
<path d="M0 0 C2 3 2 3 2 5 C0.05174573 6.66993223 -1.80196544 7.90680727 -4.125 9 C-6.33377181 9.98810386 -6.33377181 9.98810386 -8 13 C-9 10 -9 10 -8 7 C-7.34 7 -6.68 7 -6 7 C-5.9071875 6.1028125 -5.9071875 6.1028125 -5.8125 5.1875 C-4.6763243 2.12856542 -2.82669858 1.44958901 0 0 Z " fill="#99E99E" transform="translate(174,150)"/>
<path d="M0 0 C0.66 0.33 1.32 0.66 2 1 C0.86059291 4.85645478 -0.17794066 8.06505829 -3 11 C-3.99 11 -4.98 11 -6 11 C-6.3125 8.8125 -6.3125 8.8125 -6 6 C-3.5625 3.25 -3.5625 3.25 -1 1 C-0.67 0.67 -0.34 0.34 0 0 Z " fill="#90D996" transform="translate(151,173)"/>
<path d="M0 0 C0.99 0.33 1.98 0.66 3 1 C5.00875442 0.72428861 7.01178687 0.39764263 9 0 C6.4277887 3.00091319 3.64969348 4.52608532 0 6 C-3.875 6.1875 -3.875 6.1875 -7 6 C-6.67 4.35 -6.34 2.7 -6 1 C-3.83125748 1.50603992 -2.00032373 1.99983813 0 3 C0 2.01 0 1.02 0 0 Z " fill="#38A65D" transform="translate(224,161)"/>
<path d="M0 0 C0.99 0.33 1.98 0.66 3 1 C2.42460686 6.20285068 0.70581107 10.23956036 -1.5625 14.875 C-1.89185547 15.56335938 -2.22121094 16.25171875 -2.56054688 16.9609375 C-3.36695361 18.6438733 -4.18254494 20.32240293 -5 22 C-6.22419163 18.06204091 -5.48320272 15.83887763 -4 12 C-3.34 12 -2.68 12 -2 12 C-1.34 8.04 -0.68 4.08 0 0 Z " fill="#4A995F" transform="translate(367,295)"/>
<path d="M0 0 C0.33 1.32 0.66 2.64 1 4 C1.66 4 2.32 4 3 4 C4.22373928 8.51253859 5.14224787 12.30582039 5 17 C5.33 17.33 5.66 17.66 6 18 C6.04092937 20.33297433 6.04241723 22.66705225 6 25 C3.97132483 21.39955848 2.92921265 17.59196316 1.875 13.625 C1.69324219 12.97789062 1.51148437 12.33078125 1.32421875 11.6640625 C0.25647476 7.68209994 -0.19114971 4.11609035 0 0 Z " fill="#5D9462" transform="translate(125,269)"/>
<path d="M0 0 C4.54075781 4.14010271 7.71842138 8.82390176 11 14 C10.01 14.33 9.02 14.66 8 15 C7.67 14.34 7.34 13.68 7 13 C4.98330173 11.86649466 4.98330173 11.86649466 3 11 C3 8.69 3 6.38 3 4 C2.01 4 1.02 4 0 4 C0 2.68 0 1.36 0 0 Z " fill="#59A766" transform="translate(349,168)"/>
<path d="M0 0 C0.86625 0.556875 0.86625 0.556875 1.75 1.125 C1.75 1.785 1.75 2.445 1.75 3.125 C0.1 3.785 -1.55 4.445 -3.25 5.125 C-3.58 7.435 -3.91 9.745 -4.25 12.125 C-4.91 11.795 -5.57 11.465 -6.25 11.125 C-6.875 8.5625 -6.875 8.5625 -7.25 6.125 C-6.59 6.125 -5.93 6.125 -5.25 6.125 C-5.58 4.475 -5.91 2.825 -6.25 1.125 C-2.80384615 -1.09038462 -2.80384615 -1.09038462 0 0 Z " fill="#9BEFA0" transform="translate(163.25,163.875)"/>
<path d="M0 0 C0.33 0 0.66 0 1 0 C1.53375705 6.40508456 1.00981998 11.74297849 -3 17 C-3.99 17.33 -4.98 17.66 -6 18 C-5.15096798 14.13544046 -3.78420251 10.46191952 -2.4375 6.75 C-2.08655273 5.77546875 -2.08655273 5.77546875 -1.72851562 4.78125 C-1.15407213 3.18687622 -0.5772707 1.59335233 0 0 Z " fill="#388A56" transform="translate(334,278)"/>
<path d="M0 0 C0.66 0.33 1.32 0.66 2 1 C1.67 3.31 1.34 5.62 1 8 C2.32 7.67 3.64 7.34 5 7 C5 8.65 5 10.3 5 12 C4.34 12 3.68 12 3 12 C3 12.66 3 13.32 3 14 C-0.34298992 12.32850504 -0.81118736 9.39660753 -2 6 C-1.61904762 1.61904762 -1.61904762 1.61904762 0 0 Z " fill="#93ED9E" transform="translate(131,280)"/>
<path d="M0 0 C0.66 0.33 1.32 0.66 2 1 C2.99 0.67 3.98 0.34 5 0 C5.66 0.33 6.32 0.66 7 1 C6.67 1.99 6.34 2.98 6 4 C5.01 4 4.02 4 3 4 C1.61061923 5.96147874 0.2739589 7.96166576 -1 10 C-1.33 10 -1.66 10 -2 10 C-2.6875 7.25 -2.6875 7.25 -3 4 C-1.5625 1.625 -1.5625 1.625 0 0 Z " fill="#61C675" transform="translate(246,243)"/>
<path d="M0 0 C0.66 0 1.32 0 2 0 C0.70700306 2.88437779 -0.65941363 4.87219421 -3 7 C-2.67 7.66 -2.34 8.32 -2 9 C-4.3773161 11.3773161 -5.70285207 11.67028521 -9 12 C-9.66 11.34 -10.32 10.68 -11 10 C-10.34 10 -9.68 10 -9 10 C-9 9.34 -9 8.68 -9 8 C-7.28515625 6.30859375 -7.28515625 6.30859375 -5.0625 4.4375 C-3.96615234 3.50744141 -3.96615234 3.50744141 -2.84765625 2.55859375 C-1.93306641 1.78708984 -1.93306641 1.78708984 -1 1 C-0.67 0.67 -0.34 0.34 0 0 Z " fill="#2A974E" transform="translate(218,139)"/>
<path d="M0 0 C0.99 0.33 1.98 0.66 3 1 C-9.375 9.25 -9.375 9.25 -14 9 C-11.48169253 5.87729874 -10.2738451 5.05476902 -6.25 4.25 C-4.64125 4.12625 -4.64125 4.12625 -3 4 C-3 3.34 -3 2.68 -3 2 C-2.01 2 -1.02 2 0 2 C0 1.34 0 0.68 0 0 Z " fill="#2F7C4A" transform="translate(323,357)"/>
<path d="M0 0 C0.33 0 0.66 0 1 0 C1.22245975 2.24864725 1.42746557 4.49902623 1.625 6.75 C1.74101562 8.00296875 1.85703125 9.2559375 1.9765625 10.546875 C1.99888599 13.83586903 1.77961002 15.31020776 0 18 C-1.58203125 16.98046875 -1.58203125 16.98046875 -3 15 C-2.7243538 12.2879971 -2.32686245 9.93609076 -1.6875 7.3125 C-1.53087891 6.61060547 -1.37425781 5.90871094 -1.21289062 5.18554688 C-0.82406072 3.45348639 -0.41403533 1.72620884 0 0 Z " fill="#73B575" transform="translate(163,256)"/>
<path d="M0 0 C0.66 0 1.32 0 2 0 C2.33 0.66 2.66 1.32 3 2 C3.99 1.34 4.98 0.68 6 0 C8.1875 0.375 8.1875 0.375 10 1 C10 2.65 10 4.3 10 6 C6.7 5.34 3.4 4.68 0 4 C-0.33 3.01 -0.66 2.02 -1 1 C-0.67 0.67 -0.34 0.34 0 0 Z " fill="#66D47D" transform="translate(294,169)"/>
<path d="M0 0 C1.32 0 2.64 0 4 0 C4 0.66 4 1.32 4 2 C5.0725 2.103125 6.145 2.20625 7.25 2.3125 C10.85820872 2.97400493 12.36395023 3.57483421 15 6 C14.67 6.66 14.34 7.32 14 8 C8.76481294 6.56032356 4.36973991 4.18303389 0 1 C0 0.67 0 0.34 0 0 Z " fill="#5BA968" transform="translate(185,360)"/>
<path d="M0 0 C0.99 0.33 1.98 0.66 3 1 C1.68 3.31 0.36 5.62 -1 8 C-1.99 8 -2.98 8 -4 8 C-4 7.34 -4 6.68 -4 6 C-4.66 5.67 -5.32 5.34 -6 5 C-5.34 3.68 -4.68 2.36 -4 1 C-3.01 1.33 -2.02 1.66 -1 2 C-0.67 1.34 -0.34 0.68 0 0 Z " fill="#52B46D" transform="translate(351,327)"/>
<path d="M0 0 C-1.79616598 1.79616598 -3.26734579 2.86491046 -5.4375 4.125 C-6.03433594 4.47820312 -6.63117188 4.83140625 -7.24609375 5.1953125 C-9 6 -9 6 -12 6 C-11.67 5.01 -11.34 4.02 -11 3 C-12.32 2.34 -13.64 1.68 -15 1 C-9.91913204 0.15318867 -5.15171623 -0.09038099 0 0 Z " fill="#82CD8C" transform="translate(240,124)"/>
<path d="M0 0 C1.45606519 4.52092968 0.27032841 7.51648796 -1 12 C-1.66 12 -2.32 12 -3 12 C-3.33 12.99 -3.66 13.98 -4 15 C-4.66 15 -5.32 15 -6 15 C-5.855625 14.443125 -5.71125 13.88625 -5.5625 13.3125 C-4.95541833 10.97307143 -4.95541833 10.97307143 -4.625 8.4375 C-3.92025518 5.68899521 -3.04576569 4.87528522 -1 3 C-0.67 2.01 -0.34 1.02 0 0 Z " fill="#4FA963" transform="translate(374,277)"/>
<path d="M0 0 C-2.97 3.96 -2.97 3.96 -6 8 C-8.97 7.505 -8.97 7.505 -12 7 C-11.34 6.01 -10.68 5.02 -10 4 C-9.01 4 -8.02 4 -7 4 C-6.67 2.68 -6.34 1.36 -6 0 C-2.25 -1.125 -2.25 -1.125 0 0 Z " fill="#99E4A0" transform="translate(188,143)"/>
<path d="M0 0 C0 0.99 0 1.98 0 3 C-2 5 -2 5 -4.1640625 5.1953125 C-5.38222656 5.16050781 -5.38222656 5.16050781 -6.625 5.125 C-7.44226563 5.10695312 -8.25953125 5.08890625 -9.1015625 5.0703125 C-9.72804687 5.04710937 -10.35453125 5.02390625 -11 5 C-8.10998474 1.78887193 -4.47884754 -2.23942377 0 0 Z " fill="#5EAD6E" transform="translate(265,232)"/>
<path d="M0 0 C0.66 0 1.32 0 2 0 C2 1.32 2 2.64 2 4 C2.99 4 3.98 4 5 4 C5 5.32 5 6.64 5 8 C-0.75 8.125 -0.75 8.125 -3 7 C-2.1654738 4.49642139 -1.20628008 2.33214148 0 0 Z " fill="#68D880" transform="translate(347,168)"/>
<path d="M0 0 C0.66 0.66 1.32 1.32 2 2 C4.32275177 2.40047444 6.65739357 2.7397104 9 3 C9 3.66 9 4.32 9 5 C9.99 5.33 10.98 5.66 12 6 C4.64971227 5.11796547 -2.67349017 4.05987432 -10 3 C-10 2.67 -10 2.34 -10 2 C-8.37828761 1.61102839 -6.75245075 1.23921702 -5.125 0.875 C-4.22007812 0.66617188 -3.31515625 0.45734375 -2.3828125 0.2421875 C-1.20332031 0.12230469 -1.20332031 0.12230469 0 0 Z " fill="#478D51" transform="translate(269,160)"/>
<path d="M0 0 C0.763125 0.20625 1.52625 0.4125 2.3125 0.625 C1.9825 2.275 1.6525 3.925 1.3125 5.625 C-0.6675 5.625 -2.6475 5.625 -4.6875 5.625 C-5.0175 4.305 -5.3475 2.985 -5.6875 1.625 C-2.6875 -0.375 -2.6875 -0.375 0 0 Z " fill="#5CCC79" transform="translate(292.6875,130.375)"/>
<path d="M0 0 C0.33 0.66 0.66 1.32 1 2 C0.34 2 -0.32 2 -1 2 C-1.33 3.98 -1.66 5.96 -2 8 C-4.64 8.66 -7.28 9.32 -10 10 C-3.84965831 2.51708428 -3.84965831 2.51708428 0 0 Z " fill="#75AB7B" transform="translate(167,155)"/>
<path d="M0 0 C2 3 2 3 2 5 C1.34 5 0.68 5 0 5 C-0.33 5.99 -0.66 6.98 -1 8 C-4.0625 9.1875 -4.0625 9.1875 -7 10 C-5.33248852 6.05860922 -2.77289351 3.2107188 0 0 Z " fill="#7DB982" transform="translate(156,165)"/>
<path d="M0 0 C1.15649929 3.46949788 0.78962862 4.57534103 -0.25 8 C-0.50265625 8.86625 -0.7553125 9.7325 -1.015625 10.625 C-2.0222053 13.05357469 -3.01984367 14.30907999 -5 16 C-4.49228528 10.03435204 -2.61407872 5.36190101 0 0 Z " fill="#318446" transform="translate(178,194)"/>
<path d="M0 0 C1.1875 1.5625 1.1875 1.5625 2 4 C0.875 7.6875 0.875 7.6875 -1 11 C-3.1875 11.9375 -3.1875 11.9375 -5 12 C-3.68938409 7.76570244 -2.05643741 3.92592596 0 0 Z " fill="#7AB683" transform="translate(141,185)"/>
<path d="M0 0 C2.38564077 0.57584432 4.66682784 1.22227595 7 2 C7 3.32 7 4.64 7 6 C4.69 6 2.38 6 0 6 C0.33 5.01 0.66 4.02 1 3 C0.67 2.01 0.34 1.02 0 0 Z " fill="#64D97C" transform="translate(352,182)"/>
<path d="M0 0 C0.33 0.66 0.66 1.32 1 2 C3.02463255 2.65213292 3.02463255 2.65213292 5 3 C4.34 4.32 3.68 5.64 3 7 C1.35 7 -0.3 7 -2 7 C-2.33 6.34 -2.66 5.68 -3 5 C-1.5625 2.375 -1.5625 2.375 0 0 Z " fill="#67D97E" transform="translate(331,153)"/>
<path d="M0 0 C0 0.33 0 0.66 0 1 C-7.35793733 1.91160286 -14.58982977 2.11459026 -22 2 C-22 1.67 -22 1.34 -22 1 C-14.38600077 -1.19386419 -7.83703499 -0.89635331 0 0 Z " fill="#4E965A" transform="translate(276,378)"/>
<path d="M0 0 C2.31 1.98 4.62 3.96 7 6 C6.34 6.66 5.68 7.32 5 8 C4.34 8 3.68 8 3 8 C3 7.34 3 6.68 3 6 C2.01 6.33 1.02 6.66 0 7 C0 6.01 0 5.02 0 4 C-0.66 3.67 -1.32 3.34 -2 3 C-1 1 -1 1 0 0 Z " fill="#62B36B" transform="translate(187,312)"/>
<path d="M0 0 C2.97 0.495 2.97 0.495 6 1 C6 1.66 6 2.32 6 3 C7.32 3 8.64 3 10 3 C10.33 3.99 10.66 4.98 11 6 C10.01 6.33 9.02 6.66 8 7 C8 6.34 8 5.68 8 5 C7.4225 5.2475 6.845 5.495 6.25 5.75 C5.5075 5.8325 4.765 5.915 4 6 C1.75 4.1875 1.75 4.1875 0 2 C0 1.34 0 0.68 0 0 Z " fill="#6BD67F" transform="translate(305,137)"/>
<path d="M0 0 C1.47006623 4.41019868 0.43537323 7.69388031 -1 12 C-1.99 12.33 -2.98 12.66 -4 13 C-3.40895235 8.15340923 -2.02055843 4.39251833 0 0 Z " fill="#4C955B" transform="translate(242,248)"/>
<path d="M0 0 C0 0.66 0 1.32 0 2 C0.66 2 1.32 2 2 2 C2.66 3.32 3.32 4.64 4 6 C3.071875 5.835 2.14375 5.67 1.1875 5.5 C-1.95621353 4.92251612 -1.95621353 4.92251612 -5 5 C-4.625 3.0625 -4.625 3.0625 -4 1 C-2 0 -2 0 0 0 Z " fill="#6BD37F" transform="translate(325,146)"/>
<path d="M0 0 C1.41623216 -0.05447047 2.83308191 -0.09300508 4.25 -0.125 C5.03890625 -0.14820313 5.8278125 -0.17140625 6.640625 -0.1953125 C9.20731941 0.0171622 10.7916067 0.71345895 13 2 C12.34 2 11.68 2 11 2 C11.33 2.99 11.66 3.98 12 5 C10.37276701 4.54965877 8.74826336 4.08944646 7.125 3.625 C5.76761719 3.24214844 5.76761719 3.24214844 4.3828125 2.8515625 C2 2 2 2 0 0 Z " fill="#4EA15E" transform="translate(199,368)"/>
<path d="M0 0 C2.1875 2.25 2.1875 2.25 2.1875 5.25 C-1.80750618 3.8802836 -4.61259492 1.99277578 -7.8125 -0.75 C-4.27778264 -1.9619031 -3.25301368 -2.0240974 0 0 Z " fill="#5AA669" transform="translate(182.8125,354.75)"/>
<path d="M0 0 C1.32 0.33 2.64 0.66 4 1 C1.36 3.64 -1.28 6.28 -4 9 C-4.99 8.67 -5.98 8.34 -7 8 C-6.01 7.67 -5.02 7.34 -4 7 C-4 6.01 -4 5.02 -4 4 C-3.01 4 -2.02 4 -1 4 C-0.67 2.68 -0.34 1.36 0 0 Z " fill="#47975C" transform="translate(337,344)"/>
<path d="M0 0 C0.99 0 1.98 0 3 0 C2.9071875 1.1446875 2.9071875 1.1446875 2.8125 2.3125 C2.74101915 5.04525312 2.74101915 5.04525312 4.5 6.8125 C4.995 7.204375 5.49 7.59625 6 8 C5.67 8.99 5.34 9.98 5 11 C4.67 10.01 4.34 9.02 4 8 C3.34 8 2.68 8 2 8 C0.93224776 6.03533587 -0.06553465 4.03144641 -1 2 C-0.67 1.34 -0.34 0.68 0 0 Z " fill="#59A869" transform="translate(149,324)"/>
<path d="M0 0 C0.33 0.66 0.66 1.32 1 2 C1.66 2 2.32 2 3 2 C4.38938077 3.96147874 5.7260411 5.96166576 7 8 C4.69 7.67 2.38 7.34 0 7 C-0.93423645 3.98968256 -1.04449911 3.13349732 0 0 Z " fill="#63B56F" transform="translate(180,304)"/>
<path d="M0 0 C-1.42859407 1.03325986 -2.86822383 2.05127634 -4.3125 3.0625 C-5.51326172 3.91521484 -5.51326172 3.91521484 -6.73828125 4.78515625 C-7.48464844 5.18605469 -8.23101562 5.58695313 -9 6 C-9.99 5.67 -10.98 5.34 -12 5 C-12 4.34 -12 3.68 -12 3 C-10.35 2.67 -8.7 2.34 -7 2 C-7 1.34 -7 0.68 -7 0 C-3.86650268 -1.04449911 -3.01031744 -0.93423645 0 0 Z " fill="#2D6F43" transform="translate(211,173)"/>
<path d="M0 0 C4.08963819 2.28538605 7.46362104 4.95706926 11 8 C9.68 8.33 8.36 8.66 7 9 C7 8.34 7 7.68 7 7 C6.01 7 5.02 7 4 7 C3.34 5.35 2.68 3.7 2 2 C1.34 2 0.68 2 0 2 C0 1.34 0 0.68 0 0 Z " fill="#5CA765" transform="translate(325,146)"/>
<path d="M0 0 C5.01508715 1.54058233 9.6147081 3.02931839 14 6 C12.68 6.33 11.36 6.66 10 7 C10 6.34 10 5.68 10 5 C8.35 5 6.7 5 5 5 C4.67 4.01 4.34 3.02 4 2 C2.68 2 1.36 2 0 2 C0 1.34 0 0.68 0 0 Z " fill="#539864" transform="translate(301,133)"/>
<path d="M0 0 C0.66 1.32 1.32 2.64 2 4 C0.35 4 -1.3 4 -3 4 C-3 4.66 -3 5.32 -3 6 C-5.60582371 6.93065133 -6.64198224 7.14917407 -9.25 6.0625 C-9.8275 5.711875 -10.405 5.36125 -11 5 C-10.071875 4.896875 -9.14375 4.79375 -8.1875 4.6875 C-4.89063819 3.97641216 -4.07655163 3.49186196 -2 1 C-1.34 0.67 -0.68 0.34 0 0 Z " fill="#58BF6F" transform="translate(222,368)"/>
<path d="M0 0 C0.33 0.66 0.66 1.32 1 2 C1.66 2.33 2.32 2.66 3 3 C0.69 5.64 -1.62 8.28 -4 11 C-4.66 10.01 -5.32 9.02 -6 8 C-5.01 8 -4.02 8 -3 8 C-2.87625 7.4225 -2.7525 6.845 -2.625 6.25 C-1.99351176 3.97664233 -1.11141809 2.0746471 0 0 Z " fill="#469A5F" transform="translate(346,333)"/>
<path d="M0 0 C0.33 0.99 0.66 1.98 1 3 C1.66 2.34 2.32 1.68 3 1 C2.45912682 4.78611227 0.88277668 6.55400767 -2 9 C-2.66 9 -3.32 9 -4 9 C-2.94124926 5.59687262 -1.99097846 2.98646769 0 0 Z " fill="#3B9D5B" transform="translate(322,304)"/>
<path d="M0 0 C0.82638376 2.89234315 1 4.88742431 1 8 C1.66 8.66 2.32 9.32 3 10 C2.071875 10.12375 2.071875 10.12375 1.125 10.25 C-1.18437567 10.81258459 -1.18437567 10.81258459 -2.25 13.0625 C-2.4975 13.701875 -2.745 14.34125 -3 15 C-2.44854729 9.76119922 -1.57077907 5.02649303 0 0 Z " fill="#6BA772" transform="translate(129,213)"/>
<path d="M0 0 C1.23556641 0.01740234 1.23556641 0.01740234 2.49609375 0.03515625 C3.32238281 0.04417969 4.14867187 0.05320313 5 0.0625 C5.63808594 0.07410156 6.27617187 0.08570313 6.93359375 0.09765625 C6.04027344 0.54238281 6.04027344 0.54238281 5.12890625 0.99609375 C3.34779611 1.88981805 1.5766048 2.8032905 -0.19140625 3.72265625 C-3.06640625 5.09765625 -3.06640625 5.09765625 -5.06640625 5.09765625 C-2.6606399 0.12573913 -2.6606399 0.12573913 0 0 Z " fill="#2C7946" transform="translate(216.06640625,166.90234375)"/>
<path d="M0 0 C2.4750171 1.11431765 4.67883419 2.58150978 7 4 C7 4.66 7 5.32 7 6 C3.37471432 6.20140476 1.13498292 5.85776765 -2 4 C-2 3.01 -2 2.02 -2 1 C-1.34 0.67 -0.68 0.34 0 0 Z " fill="#5FB470" transform="translate(285,164)"/>
<path d="M0 0 C0.99 0.33 1.98 0.66 3 1 C2.67 1.33 2.34 1.66 2 2 C1.63239269 4.32817964 1.29758419 6.6618385 1 9 C-0.32 8.67 -1.64 8.34 -3 8 C-1.125 1.125 -1.125 1.125 0 0 Z " fill="#289951" transform="translate(223,135)"/>
<path d="M0 0 C0.99 0.33 1.98 0.66 3 1 C1.50902342 4.7952131 -0.75700849 6.61042731 -4 9 C-4 7.68 -4 6.36 -4 5 C-3.01 5 -2.02 5 -1 5 C-0.67 3.35 -0.34 1.7 0 0 Z " fill="#225E35" transform="translate(189,184)"/>
<path d="M0 0 C1.65 0 3.3 0 5 0 C5 0.66 5 1.32 5 2 C5.66 2 6.32 2 7 2 C7.33 3.65 7.66 5.3 8 7 C2.25 3.375 2.25 3.375 0 0 Z " fill="#5AA468" transform="translate(166,346)"/>
<path d="M0 0 C0.66 0.33 1.32 0.66 2 1 C1.360625 1.268125 0.72125 1.53625 0.0625 1.8125 C-2.33131686 2.88667752 -2.33131686 2.88667752 -3 6 C-5.31 6.33 -7.62 6.66 -10 7 C-7.01767477 3.67356033 -4.13629913 1.70847138 0 0 Z " fill="#7BB17E" transform="translate(194,136)"/>
<path d="M0 0 C1.53166168 4.08443115 0.63081652 7.79455657 0 12 C-0.99 12 -1.98 12 -3 12 C-2.40075776 7.80530429 -1.42500059 3.99000166 0 0 Z " fill="#73B47B" transform="translate(133,201)"/>
<path d="M0 0 C3.9492568 0.55105909 7.34920174 1.38935371 11 3 C10.67 3.66 10.34 4.32 10 5 C5.59885603 4.49701212 3.28804981 2.91227269 0 0 Z " fill="#5BA766" transform="translate(295,173)"/>
<path d="M0 0 C2.97 0.33 5.94 0.66 9 1 C9.33 1.99 9.66 2.98 10 4 C6.37 3.67 2.74 3.34 -1 3 C-0.67 2.01 -0.34 1.02 0 0 Z " fill="#68D37C" transform="translate(271,160)"/>
<path d="M0 0 C1.32 0 2.64 0 4 0 C4 0.99 4 1.98 4 3 C3.01 3.495 3.01 3.495 2 4 C2 4.66 2 5.32 2 6 C0.68 5.67 -0.64 5.34 -2 5 C-1.34 3.35 -0.68 1.7 0 0 Z " fill="#4CC670" transform="translate(339,338)"/>
<path d="M0 0 C0.33 0 0.66 0 1 0 C1.09038099 5.15171623 0.84681133 9.91913204 0 15 C-0.33 15 -0.66 15 -1 15 C-1.22211116 13.06403108 -1.42722992 11.12610672 -1.625 9.1875 C-1.74101562 8.10855469 -1.85703125 7.02960938 -1.9765625 5.91796875 C-2 3 -2 3 0 0 Z " fill="#659E68" transform="translate(163,239)"/>
<path d="M0 0 C0.66 0.33 1.32 0.66 2 1 C2 3.31 2 5.62 2 8 C1.01 8.33 0.02 8.66 -1 9 C-1.66 8.34 -2.32 7.68 -3 7 C-2.01 4.69 -1.02 2.38 0 0 Z " fill="#97F59D" transform="translate(142,189)"/>
<path d="M0 0 C1.65 0 3.3 0 5 0 C5.33 1.32 5.66 2.64 6 4 C3.69 4 1.38 4 -1 4 C-0.67 2.68 -0.34 1.36 0 0 Z " fill="#6AD67D" transform="translate(339,163)"/>
<path d="M0 0 C1.36241884 0.95999619 2.70184806 1.9547348 4 3 C2.37419034 2.88601335 0.74932843 2.75844341 -0.875 2.625 C-1.77992188 2.55539062 -2.68484375 2.48578125 -3.6171875 2.4140625 C-6 2 -6 2 -8 0 C-5.05854616 -1.47072692 -3.14695372 -0.75526889 0 0 Z " fill="#4C975B" transform="translate(227,375)"/>
<path d="M0 0 C0.99 0 1.98 0 3 0 C3 0.66 3 1.32 3 2 C3.99 2.33 4.98 2.66 6 3 C6 3.66 6 4.32 6 5 C4.35 5.33 2.7 5.66 1 6 C0.4465236 3.92446352 0 2.15634036 0 0 Z " fill="#67D97F" transform="translate(192,321)"/>
<path d="M0 0 C2 3 2 3 1.625 6.1875 C1.41875 7.115625 1.2125 8.04375 1 9 C0.01 9 -0.98 9 -2 9 C-1.125 1.125 -1.125 1.125 0 0 Z " fill="#A2F1A6" transform="translate(131,212)"/>
<path d="M0 0 C0.66 0.33 1.32 0.66 2 1 C1.67 1.33 1.34 1.66 1 2 C1.66 2.66 2.32 3.32 3 4 C0.47946405 5.26026798 -0.8542098 4.91874445 -3.625 4.5625 C-4.85089844 4.40974609 -4.85089844 4.40974609 -6.1015625 4.25390625 C-7.04128906 4.12822266 -7.04128906 4.12822266 -8 4 C-5.31143836 2.20762558 -3.0466145 1.01553817 0 0 Z " fill="#75B676" transform="translate(211,129)"/>
<path d="M0 0 C2.625 0.9375 2.625 0.9375 5 2 C4.67 2.99 4.34 3.98 4 5 C3.01 5 2.02 5 1 5 C-0.6875 3 -0.6875 3 -2 1 C-1.34 0.67 -0.68 0.34 0 0 Z " fill="#61BC76" transform="translate(160,337)"/>
<path d="M0 0 C2.0625 0.4375 2.0625 0.4375 4 1 C3.34 2.65 2.68 4.3 2 6 C1.01 6 0.02 6 -1 6 C-1.042721 4.33388095 -1.04063832 2.66617115 -1 1 C-0.67 0.67 -0.34 0.34 0 0 Z " fill="#8AE99A" transform="translate(139,304)"/>
<path d="M0 0 C1 2 1 2 0.25 5.0625 C-0.1625 6.031875 -0.575 7.00125 -1 8 C-1.99 8.33 -2.98 8.66 -4 9 C-3.38461538 3.46153846 -3.38461538 3.46153846 -1.4375 1.125 C-0.963125 0.75375 -0.48875 0.3825 0 0 Z " fill="#58D174" transform="translate(366,299)"/>
<path d="M0 0 C0 0.99 0 1.98 0 3 C-0.99 3 -1.98 3 -3 3 C-3 3.99 -3 4.98 -3 6 C-4.32 5.67 -5.64 5.34 -7 5 C-2.25 0 -2.25 0 0 0 Z " fill="#4ABD70" transform="translate(336,345)"/>
<path d="M0 0 C-4.27647387 2.85098258 -7.9317932 3.14480591 -13 3 C-8.48332093 -0.01111938 -5.3360009 -0.10067926 0 0 Z " fill="#AAEDA4" transform="translate(232,126)"/>
<path d="M0 0 C2.31 0 4.62 0 7 0 C7 0.99 7 1.98 7 3 C5.02 3 3.04 3 1 3 C0.67 2.01 0.34 1.02 0 0 Z " fill="#6BD580" transform="translate(210,370)"/>
<path d="M0 0 C0.99 0 1.98 0 3 0 C3 1.32 3 2.64 3 4 C3.99 4.33 4.98 4.66 6 5 C5.67 6.32 5.34 7.64 5 9 C4.16094435 7.87926138 3.32892169 6.75325453 2.5 5.625 C2.0359375 4.99851562 1.571875 4.37203125 1.09375 3.7265625 C0 2 0 2 0 0 Z " fill="#5C9A62" transform="translate(142,317)"/>
<path d="M0 0 C1.65 0.33 3.3 0.66 5 1 C4 3 4 3 1.93359375 3.8515625 C0.69802734 4.23441406 0.69802734 4.23441406 -0.5625 4.625 C-1.38878906 4.88539063 -2.21507812 5.14578125 -3.06640625 5.4140625 C-3.70449219 5.60742188 -4.34257812 5.80078125 -5 6 C-3.35 4.02 -1.7 2.04 0 0 Z " fill="#5EA969" transform="translate(252,237)"/>
<path d="M0 0 C1.6396875 0.0928125 1.6396875 0.0928125 3.3125 0.1875 C2.9825 1.1775 2.6525 2.1675 2.3125 3.1875 C-0.6575 3.1875 -3.6275 3.1875 -6.6875 3.1875 C-3.6875 0.1875 -3.6875 0.1875 0 0 Z " fill="#6BD580" transform="translate(259.6875,235.8125)"/>
<path d="M0 0 C2.0625 0.4375 2.0625 0.4375 4 1 C2.07423885 3.43929746 0.19909405 5.80090595 -2 8 C-1.125 1.125 -1.125 1.125 0 0 Z " fill="#25673B" transform="translate(179,196)"/>
<path d="M0 0 C0 0.66 0 1.32 0 2 C-4.95 1.67 -9.9 1.34 -15 1 C-15 0.67 -15 0.34 -15 0 C-13.06325815 -0.19517554 -11.12555991 -0.38087873 -9.1875 -0.5625 C-8.10855469 -0.66691406 -7.02960938 -0.77132812 -5.91796875 -0.87890625 C-3 -1 -3 -1 0 0 Z " fill="#78CE83" transform="translate(363,188)"/>
<path d="M0 0 C2.76276177 0.52268466 5.3260876 1.10869587 8 2 C8 2.99 8 3.98 8 5 C6.02 4.34 4.04 3.68 2 3 C2 2.34 2 1.68 2 1 C1.34 0.67 0.68 0.34 0 0 Z " fill="#5EAF6C" transform="translate(293,130)"/>
<path d="M0 0 C3.375 0.25 3.375 0.25 7 1 C7.66 2.32 8.32 3.64 9 5 C6.03 4.01 3.06 3.02 0 2 C0 1.34 0 0.68 0 0 Z " fill="#65D97F" transform="translate(190,360)"/>
<path d="M0 0 C4.455 0.99 4.455 0.99 9 2 C9 2.66 9 3.32 9 4 C6.69 3.67 4.38 3.34 2 3 C2 2.34 2 1.68 2 1 C1.34 0.67 0.68 0.34 0 0 Z " fill="#529C5A" transform="translate(224,336)"/>
<path d="M0 0 C0.66 0.33 1.32 0.66 2 1 C1.67 2.32 1.34 3.64 1 5 C-0.98 5 -2.96 5 -5 5 C-3.35 3.35 -1.7 1.7 0 0 Z " fill="#1F673D" transform="translate(303,323)"/>
<path d="M0 0 C1.32 1.32 2.64 2.64 4 4 C3.34 5.32 2.68 6.64 2 8 C0.4375 5.6875 0.4375 5.6875 -1 3 C-0.67 2.01 -0.34 1.02 0 0 Z " fill="#74B578" transform="translate(139,309)"/>
<path d="M0 0 C-0.33 1.65 -0.66 3.3 -1 5 C-1.99 5 -2.98 5 -4 5 C-4.33 4.34 -4.66 3.68 -5 3 C-2.25 0 -2.25 0 0 0 Z " fill="#8CCA8D" transform="translate(139,196)"/>
<path d="M0 0 C0 0.66 0 1.32 0 2 C-2.31 2.66 -4.62 3.32 -7 4 C-6.625 2.0625 -6.625 2.0625 -6 0 C-3.50907189 -1.24546405 -2.58919267 -0.7767578 0 0 Z " fill="#2D8B4D" transform="translate(200,178)"/>
</svg>
